<!-- icon666.com - MILLIONS vector ICONS FREE --><svg xmlns="http://www.w3.org/2000/svg" id="Line" width="23" height="23" viewBox="0 0 64 64"><path d="M12.41016,49.87646a1.00005,1.00005,0,0,0,1-1V34.90088a1.00005,1.00005,0,0,0-1-1H4.07324a1.00005,1.00005,0,0,0-1,1V48.87646a1.00005,1.00005,0,0,0,1,1ZM5.07324,35.90088h6.33692V47.87646H5.07324Z"></path><path d="M28.249,49.87646a1,1,0,0,0,1-1v-31.915a1,1,0,0,0-1-1H19.91211a1,1,0,0,0-1,1v31.915a1,1,0,0,0,1,1Zm-7.33691-31.915H27.249v29.915H20.91211Z"></path><path d="M44.08789,4H35.751a.99973.99973,0,0,0-1,1V48.87646a.99973.99973,0,0,0,1,1h8.33691a.99973.99973,0,0,0,1-1V5A.99973.99973,0,0,0,44.08789,4Zm-1,43.87646H36.751V6h6.33691Z"></path><path d="M59.92676,25.93848H51.58984a.99974.99974,0,0,0-1,1v21.938a.99974.99974,0,0,0,1,1h8.33692a.99974.99974,0,0,0,1-1v-21.938A.99974.99974,0,0,0,59.92676,25.93848Zm-1,21.938H52.58984v-19.938h6.33692Z"></path><path d="M55.75781,53.65967a3.16348,3.16348,0,0,0-2.9928,2.16992H42.91266a3.14945,3.14945,0,0,0-5.98651,0h-9.8523a3.16282,3.16282,0,0,0-5.98657.00012L11.235,55.82959a3.163,3.163,0,1,0,0,1.99988l9.85229.00012a3.16221,3.16221,0,0,0,5.98657-.00012l9.85224.00012a3.1626,3.1626,0,0,0,5.98657-.00012l9.85229.00012a3.164,3.164,0,1,0,2.99286-4.16992ZM8.2417,58a1.17029,1.17029,0,0,1,.00006-2.34033A1.17029,1.17029,0,0,1,8.2417,58Zm15.83887,0a1.17029,1.17029,0,0,1,.00006-2.34033A1.17029,1.17029,0,0,1,24.08057,58ZM39.919,58a1.17029,1.17029,0,0,1,.00006-2.34033A1.17029,1.17029,0,0,1,39.919,58Zm15.83886,0a1.17029,1.17029,0,0,1,.00006-2.34033A1.17029,1.17029,0,0,1,55.75781,58Z"></path></svg>